<svg width="40" height="40" viewBox="0 0 40 40" fill="none"
  xmlns="http://www.w3.org/2000/svg">
  <circle cx="20" cy="20" r="20" fill="#D0242A"/>
  <path fill-rule="evenodd" clip-rule="evenodd" d="M26.0004 18.5C26.0004 15.425 24.3654 12.86 21.5004 12.18V11.5C21.5004 10.67 20.8304 10 20.0004 10C19.1704 10 18.5004 10.67 18.5004 11.5V12.18C15.6354 12.86 14.0004 15.425 14.0004 18.5V23.5L12.0004 25.5V26.5H28.0004V25.5L26.0004 23.5V18.5ZM14.1504 10.15L15.5804 11.58C13.5454 13.03 12.1804 15.35 12.0254 18H10.0254C10.1754 14.795 11.7554 11.975 14.1504 10.15ZM29.9754 18H27.9754C27.8204 15.35 26.4554 13.03 24.4254 11.575L25.8504 10.15C28.2454 11.975 29.8254 14.795 29.9754 18ZM20.4054 29.46C20.2754 29.485 20.1404 29.5 20.0004 29.5C18.8954 29.5 18.0004 28.605 18.0004 27.5H22.0004C22.0004 27.78 21.9454 28.04 21.8454 28.28C21.5904 28.875 21.0554 29.325 20.4054 29.46Z" fill="white"/>
</svg>
