<svg width="38" height="38" viewBox="0 0 38 38" fill="none"
  xmlns="http://www.w3.org/2000/svg">
  <path d="M13.487 27.2245C13.4336 27.2095 13.3786 27.2004 13.3231 27.1976C14.1361 26.3432 14.6368 25.1889 14.6368 23.9191V20.0144C14.6368 19.9787 14.6334 19.9439 14.6286 19.9096C14.6335 19.8391 14.6368 19.7682 14.6368 19.6965V17.226C14.6368 16.8161 14.3045 16.4838 13.8946 16.4838H8.91656C6.82025 16.4838 5.11486 18.1893 5.11486 20.2855V23.9191C5.11486 25.1889 5.61546 26.3432 6.42853 27.1976C6.37312 27.2004 6.3182 27.2095 6.2648 27.2245C2.75745 27.5421 0 30.4983 0 34.0869V37.2578C0 37.6677 0.332277 38 0.742187 38H19.0094C19.4193 38 19.7516 37.6677 19.7516 37.2578V34.0869C19.7516 30.4984 16.9943 27.5422 13.487 27.2245ZM6.59923 21.2267V20.2855C6.59923 19.0077 7.63881 17.9681 8.91656 17.9681H13.1524V19.6964C13.1524 20.5664 12.4446 21.2743 11.5746 21.2743H6.59923V21.2267ZM6.59923 22.7586H11.5746C12.1307 22.7593 12.6765 22.6075 13.1524 22.3197V23.919C13.1524 25.7257 11.6825 27.1956 9.87584 27.1956C8.06913 27.1956 6.59923 25.7257 6.59923 23.919V22.7586ZM11.4912 28.6801L9.87584 30.2955L8.26047 28.6801H11.4912ZM18.2673 36.5156H1.48437V35.0313H4.56445C4.97436 35.0313 5.30664 34.699 5.30664 34.2891C5.30664 33.8792 4.97436 33.5469 4.56445 33.5469H1.51146C1.76076 31.0445 3.72363 29.0406 6.20617 28.725L9.35104 31.8698C9.49023 32.009 9.679 32.0872 9.87584 32.0872C10.0727 32.0872 10.2614 32.009 10.4006 31.8698L13.5455 28.725C16.2043 29.0629 18.2673 31.3378 18.2673 34.0869V36.5156Z" fill="#D0242A" fill-opacity="0.2"/>
  <path d="M31.7356 10.7407C31.6821 10.7257 31.6271 10.7167 31.5716 10.7139C32.3845 9.8594 32.8851 8.70508 32.8851 7.43535V3.53057C32.8851 3.49487 32.8817 3.46006 32.8769 3.42578C32.8818 3.35527 32.8851 3.28432 32.8851 3.21262V0.742185C32.8851 0.332276 32.5529 0 32.143 0H27.1649C25.0686 0 23.3632 1.70547 23.3632 3.80169V7.43528C23.3632 8.70501 23.8638 9.85933 24.6768 10.7138C24.6213 10.7166 24.5663 10.7256 24.5128 10.7407C21.0056 11.0584 18.2483 14.0146 18.2483 17.6031V20.7739C18.2483 21.1838 18.5806 21.5161 18.9905 21.5161H24.9622C25.3721 21.5161 25.7043 21.1838 25.7043 20.7739C25.7043 20.364 25.3721 20.0317 24.9622 20.0317H19.7327V17.6031C19.7327 14.854 21.7956 12.5791 24.4544 12.2412L27.5993 15.3861C27.7442 15.531 27.9342 15.6035 28.1241 15.6035C28.314 15.6035 28.504 15.531 28.6489 15.3861L31.7938 12.2412C34.4527 12.5792 36.5156 14.854 36.5156 17.6031V20.0318H31.0482C30.6383 20.0318 30.306 20.3641 30.306 20.774C30.306 21.1839 30.6383 21.5162 31.0482 21.5162H37.2578C37.6677 21.5162 38 21.1839 38 20.774V17.6031C38 14.0147 35.2427 11.0585 31.7356 10.7407ZM28.1242 13.8117L26.5089 12.1963H29.7396L28.1242 13.8117ZM31.4008 7.43528C31.4008 9.24198 29.9309 10.7119 28.1242 10.7119C26.3175 10.7119 24.8476 9.24205 24.8476 7.43535V6.27487H29.823C30.3791 6.27549 30.9249 6.12368 31.4008 5.83595V7.43528ZM31.4008 3.21262C31.4008 4.08268 30.693 4.7905 29.823 4.7905H24.8476V3.80169C24.8476 2.52395 25.8872 1.48437 27.165 1.48437H31.4008V3.21262Z" fill="#D0242A" fill-opacity="0.2"/>
  <path d="M28.6492 20.2491C28.5097 20.1104 28.3211 20.0323 28.1244 20.0316C27.9285 20.0316 27.7378 20.1111 27.5997 20.2491C27.4607 20.3884 27.3826 20.5771 27.3822 20.7738C27.3822 20.9698 27.4609 21.1605 27.5997 21.2986C27.7378 21.4373 27.9285 21.516 28.1244 21.516C28.3196 21.516 28.5111 21.4373 28.6492 21.2986C28.7872 21.1605 28.8666 20.9698 28.8666 20.7738C28.8666 20.5786 28.7872 20.3872 28.6492 20.2491Z" fill="#D0242A" fill-opacity="0.2"/>
  <path d="M19.8465 10.3853L16.7425 7.28143V3.71092C16.7425 1.66472 15.0778 0 13.0316 0H3.71093C1.66473 0 0 1.66472 0 3.71092V10.2421C0 12.2884 1.66473 13.9531 3.71093 13.9531H13.0315C14.5659 13.9531 15.904 13.0322 16.4653 11.6523H19.3216C19.4683 11.6522 19.6118 11.6087 19.7338 11.5271C19.8558 11.4456 19.9509 11.3297 20.0071 11.1941C20.0633 11.0585 20.078 10.9093 20.0494 10.7653C20.0208 10.6214 19.9502 10.4891 19.8465 10.3853ZM15.9239 10.1679C15.756 10.1679 15.593 10.2249 15.4616 10.3294C15.3303 10.434 15.2382 10.5801 15.2006 10.7437C14.9669 11.7593 14.0751 12.4687 13.0315 12.4687H3.71093C2.48321 12.4687 1.48437 11.4699 1.48437 10.2421V3.71092C1.48437 2.4832 2.48321 1.48437 3.71093 1.48437H13.0315C14.2593 1.48437 15.2581 2.4832 15.2581 3.71092V7.58884C15.2581 7.78567 15.3363 7.97448 15.4755 8.11364L17.5298 10.1679H15.9239Z" fill="#D0242A" fill-opacity="0.2"/>
  <path d="M34.2891 24.0468H24.9685C23.4341 24.0468 22.096 24.9676 21.5347 26.3476H18.6784C18.5317 26.3476 18.3882 26.3912 18.2662 26.4727C18.1442 26.5543 18.0491 26.6702 17.9929 26.8058C17.9367 26.9414 17.922 27.0906 17.9506 27.2345C17.9792 27.3785 18.0498 27.5107 18.1535 27.6145L21.2574 30.7184V34.2889C21.2574 36.3351 22.9222 37.9999 24.9684 37.9999H34.2891C36.3353 37.9999 38 36.3351 38 34.2889V27.7577C38 25.7115 36.3353 24.0468 34.2891 24.0468ZM36.5156 34.2889C36.5156 35.5167 35.5168 36.5155 34.2891 36.5155H24.9685C23.7407 36.5155 22.7419 35.5167 22.7419 34.2889V30.411C22.7419 30.2142 22.6637 30.0254 22.5245 29.8862L20.4702 27.8319H22.0761C22.244 27.8319 22.407 27.775 22.5383 27.6704C22.6697 27.5658 22.7618 27.4198 22.7994 27.2561C23.0331 26.2405 23.9249 25.5312 24.9685 25.5312H34.2891C35.5168 25.5312 36.5156 26.53 36.5156 27.7577V34.2889Z" fill="#D0242A" fill-opacity="0.2"/>
  <path d="M32.9647 29.0483C32.675 28.7585 32.205 28.7585 31.9152 29.0483L29.9422 31.0213L29.0248 30.1039C28.735 29.8141 28.2651 29.8141 27.9752 30.1039C27.6853 30.3937 27.6853 30.8637 27.9752 31.1536L29.4174 32.5958C29.5623 32.7407 29.7522 32.8132 29.9422 32.8132C30.1321 32.8132 30.3221 32.7407 30.467 32.5958L32.9647 30.098C33.2545 29.8082 33.2545 29.3382 32.9647 29.0483Z" fill="#D0242A" fill-opacity="0.2"/>
  <path d="M11.7454 4.91828C11.6577 3.64565 10.6318 2.6198 9.35919 2.53208C8.63756 2.48243 7.9497 2.72586 7.42275 3.21778C7.16517 3.45889 6.95973 3.75022 6.8191 4.07379C6.67847 4.39737 6.60563 4.74633 6.60508 5.09915C6.60515 5.50913 6.93743 5.8414 7.34734 5.8414C7.75725 5.8414 8.08953 5.50913 8.08953 5.09922C8.08953 4.79411 8.21244 4.51134 8.43569 4.30293C8.65857 4.09482 8.95062 3.99151 9.25722 4.01303C9.79449 4.05007 10.2276 4.48313 10.2646 5.0204C10.3021 5.5636 9.94597 6.04365 9.4179 6.16181C8.83988 6.29109 8.43621 6.79363 8.43621 7.38381V7.77977C8.43621 8.18968 8.76849 8.52195 9.1784 8.52195C9.58831 8.52195 9.92058 8.18968 9.92058 7.77977V7.56379C11.0705 7.22075 11.8294 6.13665 11.7454 4.91828Z" fill="#D0242A" fill-opacity="0.2"/>
  <path d="M9.7033 10.0951C9.5638 9.95641 9.37527 9.87828 9.17857 9.87762C8.98264 9.87762 8.79189 9.95704 8.65385 10.0951C8.51506 10.2331 8.43639 10.4246 8.43639 10.6198C8.43639 10.815 8.51506 11.0065 8.65385 11.1445C8.79189 11.2826 8.98264 11.362 9.17857 11.362C9.37377 11.362 9.56525 11.2826 9.7033 11.1445C9.84135 11.0065 9.92076 10.815 9.92076 10.6198C9.92076 10.4246 9.84135 10.2331 9.7033 10.0951Z" fill="#D0242A" fill-opacity="0.2"/>
  <path d="M8.05793 33.7642C7.91988 33.6262 7.7284 33.5468 7.5332 33.5468C7.33801 33.5468 7.14652 33.6262 7.00848 33.7642C6.87043 33.9023 6.79102 34.0937 6.79102 34.2889C6.79102 34.4841 6.87043 34.6756 7.00848 34.8137C7.14652 34.9517 7.33801 35.0311 7.5332 35.0311C7.7284 35.0311 7.91988 34.9517 8.05793 34.8137C8.19598 34.6756 8.27539 34.4841 8.27539 34.2889C8.27539 34.0937 8.19598 33.9023 8.05793 33.7642Z" fill="#D0242A" fill-opacity="0.2"/>
</svg>
