<svg width="38" height="38" viewBox="0 0 38 38" fill="none"
  xmlns="http://www.w3.org/2000/svg">
  <path d="M31.3854 6.6146C28.0772 3.3063 23.6786 1.48438 19 1.48438C14.3214 1.48438 9.92282 3.3063 6.6146 6.6146C3.3063 9.92282 1.48438 14.3214 1.48438 19C1.48438 23.6786 3.3063 28.0772 6.6146 31.3854C9.92282 34.6937 14.3214 36.5156 19 36.5156C23.6786 36.5156 28.0772 34.6937 31.3854 31.3854C34.6937 28.0772 36.5156 23.6786 36.5156 19C36.5156 14.3214 34.6937 9.92282 31.3854 6.6146ZM19 35.0312C10.1603 35.0312 2.96875 27.8397 2.96875 19C2.96875 10.1603 10.1603 2.96875 19 2.96875C27.8397 2.96875 35.0312 10.1603 35.0312 19C35.0312 27.8397 27.8397 35.0312 19 35.0312Z" fill="#D0242A" fill-opacity="0.2"/>
  <path d="M33.2641 16.1327C32.3478 11.5504 29.2507 7.66338 24.9792 5.73517C24.6055 5.56647 24.166 5.73265 23.9974 6.10627C23.8288 6.47988 23.9949 6.91948 24.3685 7.08811C28.2046 8.81978 30.9859 12.3098 31.8086 16.4238C31.8792 16.7766 32.1891 17.0206 32.5356 17.0206C32.5838 17.0206 32.6328 17.0158 32.6819 17.006C33.0839 16.9257 33.3445 16.5347 33.2641 16.1327Z" fill="#D0242A" fill-opacity="0.2"/>
  <path d="M22.4433 4.86322L22.4167 4.85677C22.0181 4.76088 21.6173 5.00639 21.5215 5.40495C21.4258 5.80357 21.6712 6.20428 22.0697 6.30009L22.0883 6.30455C22.1479 6.31924 22.2076 6.32629 22.2664 6.32629C22.5999 6.32629 22.9031 6.09985 22.9864 5.76142C23.0845 5.36338 22.8414 4.96127 22.4433 4.86322Z" fill="#D0242A" fill-opacity="0.2"/>
  <path d="M16.6746 5.36991C16.5845 4.96994 16.187 4.71901 15.7874 4.80911C13.1456 5.40472 10.7245 6.73019 8.78572 8.64221C6.84868 10.5526 5.49011 12.9526 4.8568 15.5829C4.76083 15.9814 5.00605 16.3823 5.40461 16.4782C5.46294 16.4923 5.52143 16.499 5.57895 16.499C5.91404 16.499 6.21804 16.2705 6.29991 15.9304C7.45379 11.1381 11.306 7.34116 16.1139 6.25719C16.5137 6.16702 16.7648 5.76972 16.6746 5.36991Z" fill="#D0242A" fill-opacity="0.2"/>
  <path d="M13.3822 30.7964C9.68092 29.0303 6.99272 25.5836 6.19138 21.5764C6.111 21.1745 5.71995 20.9136 5.31805 20.9941C4.91608 21.0745 4.65543 21.4655 4.73581 21.8675C5.62836 26.3309 8.62167 30.1696 12.743 32.136C12.8425 32.1838 12.9516 32.2086 13.062 32.2085C13.3392 32.2085 13.6051 32.0526 13.7324 31.7859C13.909 31.4159 13.7522 30.9729 13.3822 30.7964Z" fill="#D0242A" fill-opacity="0.2"/>
  <path d="M15.9265 31.699C15.5284 31.6005 15.1263 31.8438 15.0282 32.2418C14.9301 32.6398 15.1732 33.042 15.5711 33.1401L15.5814 33.1427C15.6402 33.1569 15.699 33.1638 15.7569 33.1638C16.0908 33.1638 16.3925 32.9357 16.4751 32.5963C16.572 32.1979 16.3248 31.7958 15.9265 31.699Z" fill="#D0242A" fill-opacity="0.2"/>
  <path d="M32.5952 21.5219C32.1968 21.4258 31.7958 21.6711 31.6999 22.0697C30.546 26.8619 26.6938 30.6589 21.886 31.7429C21.4861 31.8331 21.235 32.2302 21.3252 32.6301C21.4029 32.9751 21.7092 33.2092 22.0485 33.2092C22.1026 33.2092 22.1575 33.2033 22.2124 33.1909C24.8542 32.5953 27.2753 31.2699 29.2141 29.3578C31.1511 27.4475 32.5097 25.0474 33.143 22.4172C33.239 22.0186 32.9937 21.6178 32.5952 21.5219Z" fill="#D0242A" fill-opacity="0.2"/>
  <path d="M19 0C18.5901 0 18.2578 0.332277 18.2578 0.742188V6.30859C18.2578 6.7185 18.5901 7.05078 19 7.05078C19.4099 7.05078 19.7422 6.7185 19.7422 6.30859V0.742188C19.7422 0.332277 19.4099 0 19 0Z" fill="#D0242A" fill-opacity="0.2"/>
  <path d="M19 30.9492C18.5901 30.9492 18.2578 31.2816 18.2578 31.6914V37.2578C18.2578 37.6676 18.5901 38 19 38C19.4099 38 19.7422 37.6676 19.7422 37.2578V31.6914C19.7422 31.2816 19.4099 30.9492 19 30.9492Z" fill="#D0242A" fill-opacity="0.2"/>
  <path d="M37.2578 18.2578H31.6914C31.2815 18.2578 30.9492 18.5901 30.9492 19C30.9492 19.4098 31.2815 19.7422 31.6914 19.7422H37.2578C37.6677 19.7422 38 19.4098 38 19C38 18.5901 37.6677 18.2578 37.2578 18.2578Z" fill="#D0242A" fill-opacity="0.2"/>
  <path d="M6.30859 18.2578H0.742188C0.332277 18.2578 0 18.5901 0 19C0 19.4098 0.332277 19.7422 0.742188 19.7422H6.30859C6.7185 19.7422 7.05078 19.4098 7.05078 19C7.05078 18.5901 6.7185 18.2578 6.30859 18.2578Z" fill="#D0242A" fill-opacity="0.2"/>
  <path d="M22.2864 18.2269C22.2788 18.2247 22.2711 18.2232 22.2635 18.2213C22.9581 17.4456 23.3815 16.4223 23.3815 15.3016V9.24023C23.3815 8.83032 23.0492 8.49805 22.6393 8.49805H18.1311C16.1941 8.49805 14.6182 10.0739 14.6182 12.011V15.3016C14.6182 16.4223 15.0416 17.4456 15.7362 18.2213C15.7286 18.2232 15.7209 18.2248 15.7133 18.2269C12.5062 18.5225 9.98615 21.2268 9.98615 24.5097V27.127C9.98615 27.5368 10.3184 27.8691 10.7283 27.8691H27.2714C27.6813 27.8691 28.0136 27.5368 28.0136 27.127V24.5097C28.0137 21.2268 25.4936 18.5226 22.2864 18.2269ZM19 18.199C17.4025 18.199 16.1027 16.8992 16.1027 15.3017V14.3207H20.5383C21.0132 14.3213 21.4806 14.2022 21.8973 13.9744V15.3017C21.8973 16.8992 20.5976 18.199 19 18.199ZM20.2937 19.6833L18.9999 20.977L17.7062 19.6833H20.2937ZM16.1026 12.011H16.1027C16.1027 10.8924 17.0127 9.98242 18.1312 9.98242H21.8972V11.4775C21.8972 12.2268 21.2876 12.8364 20.5383 12.8364H16.1026V12.011ZM26.5293 26.3848H11.4706V24.5097C11.4706 22.0675 13.2944 20.0444 15.6513 19.7277L18.4751 22.5515C18.6201 22.6964 18.81 22.7689 18.9999 22.7689C19.1899 22.7689 19.3799 22.6964 19.5247 22.5515L22.3485 19.7277C24.7055 20.0444 26.5293 22.0675 26.5293 24.5097V26.3848Z" fill="#D0242A" fill-opacity="0.2"/>
</svg>
