<svg width="38" height="38" viewBox="0 0 38 38" fill="none"
  xmlns="http://www.w3.org/2000/svg">
  <path d="M11.9698 26.1993C11.8317 26.0612 11.6402 25.9817 11.445 25.9817C11.2498 25.9817 11.0583 26.0611 10.9202 26.1993C10.7815 26.3387 10.7034 26.5272 10.7027 26.7239C10.7027 26.9192 10.7821 27.1107 10.9202 27.2487C11.0583 27.3867 11.2498 27.4661 11.445 27.4661C11.6402 27.4661 11.8317 27.3868 11.9698 27.2487C12.1085 27.1092 12.1867 26.9206 12.1873 26.7239C12.1873 26.5287 12.1079 26.3372 11.9698 26.1993Z" fill="#D0242A" fill-opacity="0.2"/>
  <path d="M36.758 27.0195L31.3915 21.6538C30.5906 20.853 29.5258 20.412 28.393 20.412C27.2603 20.412 26.1955 20.853 25.3946 21.6538L23.5232 23.5249L23.5229 23.5251L23.5227 23.5253L22.7751 24.2727L13.7189 15.2178L16.3382 12.5989C17.9915 10.9457 17.9915 8.25589 16.3382 6.60274L10.9764 1.24176C9.32304 -0.411172 6.6328 -0.411172 4.9794 1.24176L3.5651 2.65578C-1.18837 7.40861 -1.18837 15.142 3.5651 19.8948L8.7799 25.1088C9.06977 25.3986 9.53979 25.3986 9.82973 25.1088C10.1196 24.819 10.1196 24.3491 9.82973 24.0592L4.61493 18.8451C0.773086 15.0039 0.467036 8.94583 3.69641 4.75105L9.33351 10.3874C9.40237 10.4564 9.48418 10.5111 9.57426 10.5484C9.66433 10.5857 9.76089 10.6049 9.85839 10.6048C9.95588 10.6049 10.0524 10.5857 10.1425 10.5484C10.2326 10.5111 10.3144 10.4564 10.3833 10.3874C10.6731 10.0976 10.6732 9.6276 10.3833 9.3377L4.68255 3.63777L6.02916 2.29136C7.10371 1.21712 8.85205 1.21697 9.9266 2.29136L15.2884 7.65234C16.3629 8.72673 16.3629 10.4748 15.2884 11.5492L12.1441 14.6929C12.005 14.8321 11.9268 15.0209 11.9268 15.2177C11.9268 15.4145 12.005 15.6033 12.1441 15.7425L22.2503 25.8471C22.5402 26.137 23.0102 26.1369 23.3 25.8471L24.0478 25.0995L33.2486 34.2989C31.3861 35.7364 29.1145 36.5156 26.7229 36.5156C23.863 36.5156 21.1742 35.402 19.1519 33.38L13.8629 28.0918C13.5731 27.802 13.103 27.802 12.8131 28.0918C12.5232 28.3816 12.5232 28.8516 12.8131 29.1415L18.1021 34.4297C20.4048 36.732 23.4664 38 26.7229 38C29.9795 38 33.0411 36.732 35.3438 34.4297L36.758 33.0156C37.5589 32.2149 38 31.1501 38 30.0175C38 28.885 37.5589 27.8204 36.758 27.0195ZM35.7082 31.9659L34.3615 33.3124L25.0976 24.0499L26.4443 22.7034C26.9648 22.1829 27.6569 21.8963 28.393 21.8963C29.1292 21.8963 29.8212 22.1829 30.3417 22.7034L35.7081 28.0691C36.2287 28.5896 36.5154 29.2816 36.5154 30.0175C36.5154 30.7536 36.2288 31.4456 35.7082 31.9659Z" fill="#D0242A" fill-opacity="0.2"/>
  <path d="M12.1858 11.1403C12.0477 11.0015 11.8562 10.9228 11.661 10.9228C11.4657 10.9228 11.2742 11.0015 11.1362 11.1403C10.9974 11.2797 10.9192 11.4683 10.9187 11.665C10.9187 11.8602 10.9981 12.0517 11.1362 12.1897C11.2742 12.3278 11.4657 12.4072 11.661 12.4072C11.8562 12.4072 12.0477 12.3278 12.1858 12.1897C12.3238 12.0517 12.4033 11.8602 12.4033 11.665C12.4033 11.4698 12.3238 11.2783 12.1858 11.1403Z" fill="#D0242A" fill-opacity="0.2"/>
  <path d="M31.2885 5.36121C31.2009 4.0885 30.1749 3.06272 28.9021 2.97499C28.1801 2.92593 27.4924 3.1687 26.9654 3.66063C26.7077 3.90174 26.5023 4.19308 26.3616 4.51668C26.2209 4.84027 26.1481 5.18925 26.1476 5.54208C26.1476 5.95192 26.4799 6.28427 26.8899 6.28427C27.2998 6.28427 27.6322 5.95192 27.6322 5.54208C27.6322 5.23696 27.7551 4.95412 27.9784 4.74578C28.2013 4.53767 28.4927 4.43503 28.8 4.45596C29.3374 4.49292 29.7705 4.92606 29.8075 5.46333C29.845 6.00654 29.4888 6.48659 28.9608 6.60475C28.3826 6.73389 27.9788 7.2365 27.9788 7.82676V9.1636C27.9788 9.57343 28.3111 9.90579 28.7211 9.90579C29.1311 9.90579 29.4634 9.57343 29.4634 9.1636V8.00674C30.6135 7.6637 31.3725 6.57959 31.2885 5.36121Z" fill="#D0242A" fill-opacity="0.2"/>
  <path d="M29.2461 11.2798C29.108 11.1417 28.9165 11.0631 28.7213 11.0631C28.526 11.0631 28.3345 11.1418 28.1965 11.2798C28.0578 11.4196 27.9796 11.6083 27.979 11.8053C27.979 12.0004 28.0584 12.1919 28.1965 12.33C28.3345 12.468 28.526 12.5474 28.7213 12.5474C28.9165 12.5474 29.108 12.4681 29.2461 12.33C29.3848 12.1905 29.4629 12.002 29.4636 11.8053C29.4629 11.6083 29.3848 11.4196 29.2461 11.2798Z" fill="#D0242A" fill-opacity="0.2"/>
  <path d="M34.2884 0H23.1539C21.1074 0 19.4425 1.66473 19.4425 3.71094V12.1699C19.4425 14.2161 21.1074 15.8808 23.1539 15.8808H25.9691L28.142 18.7099C28.2114 18.8002 28.3005 18.8733 28.4026 18.9236C28.5047 18.9739 28.6169 19 28.7308 19H28.7321C28.8461 18.9998 28.9586 18.9733 29.0607 18.9226C29.1629 18.872 29.252 18.7984 29.3211 18.7078L31.4761 15.8808H34.2883C36.3349 15.8808 37.9998 14.2161 37.9998 12.1699V3.71094C37.9999 1.66473 36.335 0 34.2884 0ZM36.5155 12.1699H36.5153C36.5153 13.3976 35.5163 14.3965 34.2884 14.3965H31.1087C30.9944 14.3965 30.8817 14.4228 30.7793 14.4735C30.6769 14.5242 30.5876 14.5979 30.5184 14.6887L28.7287 17.0364L26.9239 14.6866C26.8545 14.5963 26.7654 14.5232 26.6633 14.4729C26.5612 14.4226 26.4489 14.3965 26.3351 14.3965H23.1541C21.9262 14.3965 20.9272 13.3976 20.9272 12.1699V3.71094C20.9272 2.48322 21.9262 1.48438 23.1541 1.48438H34.2886C35.5165 1.48438 36.5155 2.48322 36.5155 3.71094V12.1699Z" fill="#D0242A" fill-opacity="0.2"/>
</svg>
