<svg width="38" height="38" viewBox="0 0 38 38" fill="none"
  xmlns="http://www.w3.org/2000/svg">
  <path d="M35.7734 0H9.35156C8.12384 0 7.125 0.998836 7.125 2.22656V4.75C7.125 5.15984 7.45728 5.49219 7.86719 5.49219C8.2771 5.49219 8.60938 5.15984 8.60938 4.75V2.22656C8.60938 1.81732 8.94232 1.48438 9.35156 1.48438H35.7734C36.1827 1.48438 36.5156 1.81732 36.5156 2.22656V35.7734C36.5156 36.1827 36.1827 36.5156 35.7734 36.5156H9.35156C8.94232 36.5156 8.60938 36.1827 8.60938 35.7734V33.3736C8.60938 32.9637 8.2771 32.6314 7.86719 32.6314C7.45728 32.6314 7.125 32.9637 7.125 33.3736V35.7734C7.125 37.0012 8.12384 38 9.35156 38H35.7734C37.0012 38 38 37.0012 38 35.7734V2.22656C38 0.998836 37.0012 0 35.7734 0Z" fill="#D0242A" fill-opacity="0.2"/>
  <path d="M32.203 28.6484H14.3905C13.9806 28.6484 13.6483 28.9808 13.6483 29.3906C13.6483 29.8005 13.9806 30.1328 14.3905 30.1328H32.203C32.6129 30.1328 32.9452 29.8005 32.9452 29.3906C32.9452 28.9808 32.6129 28.6484 32.203 28.6484Z" fill="#D0242A" fill-opacity="0.2"/>
  <path d="M32.7275 32.7253C32.5881 32.5864 32.3995 32.5083 32.2028 32.5078C32.0076 32.5078 31.8161 32.5872 31.678 32.7253C31.54 32.8634 31.4606 33.0548 31.4606 33.25C31.4606 33.4452 31.54 33.6367 31.678 33.7747C31.8175 33.9133 32.006 33.9915 32.2028 33.9922C32.3987 33.9922 32.5894 33.9128 32.7275 33.7747C32.8655 33.6367 32.9449 33.4452 32.9449 33.25C32.9449 33.0548 32.8655 32.8633 32.7275 32.7253Z" fill="#D0242A" fill-opacity="0.2"/>
  <path d="M29.168 32.5078H14.3905C13.9806 32.5078 13.6483 32.8402 13.6483 33.25C13.6483 33.6598 13.9806 33.9922 14.3905 33.9922H29.168C29.5779 33.9922 29.9102 33.6598 29.9102 33.25C29.9102 32.8402 29.5779 32.5078 29.168 32.5078Z" fill="#D0242A" fill-opacity="0.2"/>
  <path d="M19.592 6.51395C15.1754 6.51395 11.5822 10.1072 11.5822 14.5239C11.582 16.8163 12.5504 18.8867 14.0993 20.3482C14.1257 20.377 14.1544 20.4037 14.185 20.428C15.6109 21.7349 17.5098 22.5336 19.5919 22.5336C21.6741 22.5336 23.5729 21.7348 24.9989 20.428C25.0299 20.4036 25.0582 20.3767 25.0846 20.3482C26.6334 18.8867 27.6019 16.8163 27.6019 14.5239C27.6019 10.1072 24.0086 6.51395 19.592 6.51395ZM19.5919 21.0492C18.0673 21.0492 16.6633 20.5236 15.5512 19.6441C16.3391 18.1536 17.8743 17.2158 19.5919 17.2158C21.3096 17.2158 22.8448 18.1536 23.6327 19.6441C22.5206 20.5236 21.1166 21.0492 19.5919 21.0492ZM18.0297 14.1693V13.5932C18.0297 12.7318 18.7305 12.0309 19.5919 12.0309C20.4533 12.0309 21.154 12.7317 21.154 13.5932V14.1693C21.154 15.0306 20.4533 15.7315 19.5919 15.7315C18.7305 15.7315 18.0297 15.0307 18.0297 14.1693ZM24.7183 18.557C24.039 17.4735 23.045 16.6471 21.8816 16.1757C22.3522 15.6394 22.6385 14.9373 22.6385 14.1694V13.5932C22.6385 11.9133 21.2718 10.5466 19.5919 10.5466C17.9121 10.5466 16.5454 11.9133 16.5454 13.5932V14.1694C16.5454 14.9373 16.8317 15.6394 17.3023 16.1757C16.1389 16.6472 15.1449 17.4735 14.4656 18.557C13.5897 17.4461 13.0665 16.045 13.0665 14.5239C13.0664 10.9257 15.9937 7.99832 19.5919 7.99832C23.1901 7.99832 26.1174 10.9257 26.1174 14.5239C26.1174 16.045 25.5942 17.4461 24.7183 18.557Z" fill="#D0242A" fill-opacity="0.2"/>
  <path d="M19.592 2.96875C13.2205 2.96875 8.03693 8.15234 8.03693 14.5238C8.03693 18.2075 9.76964 21.4942 12.4628 23.6115L3.84854 32.2257C3.3086 32.7656 2.43 32.7656 1.88998 32.2257C1.62843 31.9642 1.48437 31.6164 1.48437 31.2465C1.48437 30.8766 1.62843 30.5288 1.89005 30.2672L6.29568 25.8616C6.5855 25.5718 6.5855 25.1018 6.29568 24.8119C6.00585 24.5222 5.5359 24.5222 5.24608 24.8119L0.840527 29.2175C0.298434 29.7595 0 30.4801 0 31.2465C0 32.0128 0.298434 32.7334 0.840379 33.2754C1.39977 33.8347 2.13453 34.1144 2.8693 34.1144C3.60406 34.1144 4.33883 33.8347 4.89821 33.2754L13.7085 24.4651C15.4329 25.4895 17.4447 26.0789 19.592 26.0789C25.9635 26.0789 31.147 20.8953 31.147 14.5239C31.147 8.15241 25.9634 2.96875 19.592 2.96875ZM19.592 24.5945C14.039 24.5945 9.52122 20.0768 9.52122 14.5238C9.52122 8.97082 14.0389 4.45312 19.592 4.45312C25.145 4.45312 29.6626 8.97082 29.6626 14.5238C29.6626 20.0768 25.1449 24.5945 19.592 24.5945Z" fill="#D0242A" fill-opacity="0.2"/>
  <path d="M8.63163 22.4757C8.49222 22.3369 8.30364 22.2587 8.1069 22.2582C7.91171 22.2582 7.72022 22.3376 7.58218 22.4757C7.44349 22.6152 7.36536 22.8037 7.36472 23.0004C7.36472 23.1956 7.44413 23.387 7.58218 23.5251C7.72022 23.6631 7.91171 23.7426 8.1069 23.7426C8.30284 23.7425 8.49358 23.6631 8.63163 23.5251C8.77061 23.3858 8.8488 23.1971 8.84909 23.0004C8.84909 22.8052 8.77042 22.6137 8.63163 22.4757Z" fill="#D0242A" fill-opacity="0.2"/>
</svg>
