<svg width="38" height="38" viewBox="0 0 38 38" fill="none"
  xmlns="http://www.w3.org/2000/svg">
  <path d="M35.7734 18.2672H28.0137V16.0117C28.0137 12.7287 25.4936 10.0244 22.2866 9.72882C22.279 9.72666 22.2713 9.72511 22.2636 9.72325C22.9582 8.94759 23.3817 7.92426 23.3817 6.80356V0.742188C23.3817 0.332277 23.0494 0 22.6395 0H18.1313C16.1942 0 14.6183 1.57589 14.6183 3.51292V6.80356C14.6183 7.92426 15.0418 8.94759 15.7364 9.72325C15.7287 9.72511 15.721 9.72674 15.7134 9.72882C12.5064 10.0244 9.98628 12.7287 9.98628 16.0117V18.2672H2.22656C0.998836 18.2672 0 19.2661 0 20.4938V35.7734C0 37.0012 0.998836 38 2.22656 38H22.4883C22.8982 38 23.2305 37.6676 23.2305 37.2578C23.2305 36.848 22.8982 36.5156 22.4883 36.5156H2.22656C1.81732 36.5156 1.48438 36.1827 1.48438 35.7734V20.4938C1.48438 20.0846 1.81732 19.7516 2.22656 19.7516H35.7734C36.1827 19.7516 36.5156 20.0846 36.5156 20.4938V35.7734C36.5156 36.1827 36.1827 36.5156 35.7734 36.5156H28.9824C28.5725 36.5156 28.2402 36.848 28.2402 37.2578C28.2402 37.6676 28.5725 38 28.9824 38H35.7734C37.0012 38 38 37.0012 38 35.7734V20.4938C38 19.2661 37.0012 18.2672 35.7734 18.2672ZM19.0001 9.70091C17.4025 9.70091 16.1028 8.40119 16.1028 6.80363V5.82268H20.5384C21.0133 5.82324 21.4807 5.70412 21.8974 5.47631V6.80363C21.8974 8.40119 20.5976 9.70091 19.0001 9.70091ZM20.2938 11.1852L19 12.479L17.7062 11.1852H20.2938ZM16.1026 3.51292H16.1027C16.1027 2.39437 17.0127 1.48438 18.1313 1.48438H21.8973V2.97944C21.8973 3.72875 21.2876 4.33838 20.5383 4.33838H16.1026V3.51292ZM26.5293 18.2578H11.4707V16.0117C11.4707 13.5694 13.2944 11.5464 15.6514 11.2297L18.4752 14.0535C18.6201 14.1984 18.8101 14.2709 19 14.2709C19.1899 14.2709 19.3799 14.1984 19.5248 14.0535L22.3486 11.2297C24.7056 11.5464 26.5293 13.5694 26.5293 16.0117V18.2578Z" fill="#D0242A" fill-opacity="0.2"/>
  <path d="M26.3529 36.7331C26.2148 36.595 26.0233 36.5156 25.8281 36.5156C25.6329 36.5156 25.4414 36.595 25.3034 36.7331C25.1654 36.8711 25.0859 37.0626 25.0859 37.2578C25.0859 37.453 25.1654 37.6445 25.3034 37.7825C25.4414 37.9205 25.6329 38 25.8281 38C26.0233 38 26.2148 37.9206 26.3529 37.7825C26.4909 37.6445 26.5703 37.453 26.5703 37.2578C26.5703 37.0626 26.4909 36.8711 26.3529 36.7331Z" fill="#D0242A" fill-opacity="0.2"/>
  <path d="M22.1172 22.4095H15.8828C15.0643 22.4095 14.3984 23.0753 14.3984 23.8938V25.0365C14.3984 25.4463 14.7307 25.7787 15.1406 25.7787C15.5505 25.7787 15.8828 25.4463 15.8828 25.0365V23.8938H22.1172V32.5032H15.8828V30.6523C15.8828 30.2425 15.5505 29.9102 15.1406 29.9102C14.7307 29.9102 14.3984 30.2425 14.3984 30.6523V32.5032C14.3984 33.3217 15.0643 33.9876 15.8828 33.9876H22.1172C22.9357 33.9876 23.6016 33.3217 23.6016 32.5032V23.8938C23.6016 23.0753 22.9357 22.4095 22.1172 22.4095Z" fill="#D0242A" fill-opacity="0.2"/>
  <path d="M15.6654 27.3852C15.5273 27.2464 15.3358 27.1678 15.1406 27.1678C14.9454 27.1678 14.7539 27.2464 14.6159 27.3852C14.4779 27.5233 14.3984 27.7148 14.3984 27.91C14.3984 28.1052 14.4779 28.2966 14.6159 28.4347C14.7539 28.5727 14.9454 28.6521 15.1406 28.6521C15.3358 28.6521 15.5273 28.5727 15.6654 28.4347C15.8034 28.2966 15.8828 28.1052 15.8828 27.91C15.8828 27.714 15.8034 27.5233 15.6654 27.3852Z" fill="#D0242A" fill-opacity="0.2"/>
  <path d="M33.5469 22.4095H27.3125C26.494 22.4095 25.8281 23.0753 25.8281 23.8938V32.5032C25.8281 33.3217 26.494 33.9876 27.3125 33.9876H33.5469C34.3654 33.9876 35.0312 33.3217 35.0312 32.5032V23.8938C35.0312 23.0753 34.3654 22.4095 33.5469 22.4095ZM33.5469 32.5032H27.3125V23.8938H33.5469L33.5478 32.5031L33.5469 32.5032Z" fill="#D0242A" fill-opacity="0.2"/>
  <path d="M8.83203 28.9383H6.30859C5.89868 28.9383 5.56641 29.2707 5.56641 29.6805C5.56641 30.0904 5.89868 30.4227 6.30859 30.4227H8.83203C9.24194 30.4227 9.57422 30.0904 9.57422 29.6805C9.57422 29.2707 9.24194 28.9383 8.83203 28.9383Z" fill="#D0242A" fill-opacity="0.2"/>
  <path d="M8.83203 25.9743H6.30859C5.89868 25.9743 5.56641 26.3066 5.56641 26.7164C5.56641 27.1263 5.89868 27.4586 6.30859 27.4586H8.83203C9.24194 27.4586 9.57422 27.1263 9.57422 26.7164C9.57422 26.3066 9.24194 25.9743 8.83203 25.9743Z" fill="#D0242A" fill-opacity="0.2"/>
  <path d="M20.2711 28.9383H17.7477C17.3378 28.9383 17.0055 29.2707 17.0055 29.6805C17.0055 30.0904 17.3378 30.4227 17.7477 30.4227H20.2711C20.681 30.4227 21.0133 30.0904 21.0133 29.6805C21.0133 29.2707 20.681 28.9383 20.2711 28.9383Z" fill="#D0242A" fill-opacity="0.2"/>
  <path d="M20.2711 25.9743H17.7477C17.3378 25.9743 17.0055 26.3066 17.0055 26.7164C17.0055 27.1263 17.3378 27.4586 17.7477 27.4586H20.2711C20.681 27.4586 21.0133 27.1263 21.0133 26.7164C21.0133 26.3066 20.681 25.9743 20.2711 25.9743Z" fill="#D0242A" fill-opacity="0.2"/>
  <path d="M31.7102 28.9383H29.1868C28.7769 28.9383 28.4446 29.2707 28.4446 29.6805C28.4446 30.0904 28.7769 30.4227 29.1868 30.4227H31.7102C32.1201 30.4227 32.4524 30.0904 32.4524 29.6805C32.4524 29.2707 32.1201 28.9383 31.7102 28.9383Z" fill="#D0242A" fill-opacity="0.2"/>
  <path d="M31.7102 25.9743H29.1868C28.7769 25.9743 28.4446 26.3066 28.4446 26.7164C28.4446 27.1263 28.7769 27.4586 29.1868 27.4586H31.7102C32.1201 27.4586 32.4524 27.1263 32.4524 26.7164C32.4524 26.3066 32.1201 25.9743 31.7102 25.9743Z" fill="#D0242A" fill-opacity="0.2"/>
  <path d="M10.6875 22.4095H4.45312C3.63464 22.4095 2.96875 23.0753 2.96875 23.8938V32.5032C2.96875 33.3217 3.63464 33.9876 4.45312 33.9876H10.6875C11.506 33.9876 12.1719 33.3217 12.1719 32.5032V23.8938C12.1719 23.0753 11.506 22.4095 10.6875 22.4095ZM10.6875 32.5032H4.45312V23.8938H10.6875L10.6885 32.5031L10.6875 32.5032Z" fill="#D0242A" fill-opacity="0.2"/>
</svg>
